<?xml version="1.0" encoding="utf-8"?>
<svg version="1.1" id="Layer_1" xmlns="http://www.w3.org/2000/svg" xmlns:xlink="http://www.w3.org/1999/xlink" x="0px" y="0px"
	 viewBox="0 0 1451.554 1675.232" enable-background="new 0 0 1451.554 1675.232" xml:space="preserve">
<g>
	<g id="XMLID_1_">
		<path d="M1418.54,535.01c1.49,59.69-32.73,75.64-90.67,80.37c-30.8,2.1-108.21-35.77-109.21-36.09
			c-17.28-5.75-28.81-15.09-43.79-10.47c11.06,8.89,23.44,15.8,35.15,23.73c10.45,5.57,40.85,32.1,52.41,39.28
			c29.55,19.06,25.95,26.46,84.38,60.58c27.84,10.66,37.88,4.2,48.8,9.8c17.47,22.78,0.42,80.02-61.54,85.07
			c-46.17-5.39-68.04-27.73-87.81-43.09c-19.32-14.69-97.85-110.52-115.49-116.84c1.67,6.61,6.36,11.72,10.49,16.93
			c30.68,34.63,71.1,126.99,87.05,143.11c1.49,2.78,49.65,80.94,77.87,106.6c32.25,30.22,34.06,22.33,47.09,30.62
			c-8.29,47.46-55.42,71.59-113.81,37.67c-87.09-43.88-138.38-236.39-184.06-290.2c3.55,18.87,27.55,66.96,41.26,160.69
			c10.98,49.05,31.31,153.83,68.69,186.46c-0.76,7.6-6.15,13.34-10.88,18.84c-2.97,3.68-8,3.8-12.08,5.41
			c-3.77,1.31-7.43,3.9-11.59,3.12c-50.35-4.69-70.6-27.65-90.02-57.56c-22.1-28.53-42.21-106.65-48.66-142.2
			c-14.13-98.78-11.17-150.14-23.26-175.39c-1.9-0.23-3.78-0.41-5.67-0.52c0.57,10.93,1.92,21.79,1.7,32.75
			c2.37,20.45-0.41,41,0.6,61.47c-1.15,28.99,3.48,57.82,3.85,86.75c1.35,19.35,5.88,38.19,10.29,57.02
			c-9.17,2.5-42.13-3.05-59.38-23.24c-20.66-19.48-40.19-59.31-41.82-87.37c-0.36-18.73-7.11-5.91-4.57-61.54
			c2.16-17.04,0.51-57.7-0.35-60.36c-2.3,8.46-28.77,112.33-27.89,124.53c5.27,12.16,12.71,23.2,18.48,35.1
			c22.34,40.47,3.39,14.63,59.41,112.62c16.73,33.74,53.56,66.34,63.44,85.06c-8.82,2.65-17.35,6.64-24.99,11.73
			c18.96,26.48,92.87,104.87,125.04,124.4c19.94-0.02,37.23-11.92,51.42-24.84c12.87-11.98,11.77-30.17,36.07-47.36
			c13.47-9.49,29.6,2.21,34.95,1.61c16.19-0.93,34.05,2.34,45.99,14.12c8.59,11.4,14.71,25.18,15.39,39.58
			c-10.98,1.39-13.64-21.18-39.73-9.57c0.93,9.46-0.34,21.33-9.26,26.76c-10.36,8.1-24.58,3.81-35.95,0.36
			c-10.31,11.78-24.6,18.81-37.78,26.79c73.16,22.15,86.01-11.05,103.66-9.25c23.7,1.45,22.09,22.18,23.95,26.39
			c3.81,3.28,25.86,7.76,31.93,42.65c3.22,14.21,3.93,29.38,0.16,43.56c-1.49-2.76-14.99-36.65-39.96-41.46
			c-5.64,1.45-7.05,8.39-11.74,11.37c-8,7.11-19.89,9.38-29.6,4.53c-7.76-2.92-9.92-11.58-14.48-17.65
			c-10.37-0.19-20.94,1-31.09-1.75c-9.49-2.62-19.47-2.76-28.84-5.85c-5.33-1.5-10.64-3.15-16.13-3.83
			c5.93,6.5,13.1,11.72,18.72,18.54c6.41,8.09,16.81,11.5,26.69,12.81c21.52-0.11,39.34,13.47,37.31,36.07
			c20.66,61.38-13.82,86.52-25.73,100.64c-1.19,1.7-3.25,2.09-5.05,2.75c0.71-15.93,9.76-33.38-5.11-62.93
			c-14.99,10.87-43.66,4.41-46.94-31.07c-13.51-12.34-39.68-34.64-65.25-78.87c-19.82,17.2-11.81,13.38-34.86,25.56
			c-2.18,6.13-1.94,13.49-6.91,18.29c-6.17,6.65-4.97,7.2-22.59,11.33c-7.43-1.81-14.54-4.74-20.63-9.41
			c-8.46,26.18-1.22,33.76-0.09,45.93c-3.09,0.21-6.53,0.7-8.61-2.13c-5.3-6.23-12.6-10.72-16.48-18.1
			c-5.49-9.69-9.21-22.19-10.23-34.57c-1.48-17.9,2.65-35.53,15.1-43.95c21.01-10.18,53.59-4.64,66.28-33.04
			c-125.01-118.2-75.35-73.28-104.42-102.72c-7.82-7.32-13.67-16.39-21.29-23.89c-2.03,11.04-6.03,21.57-11.36,31.41
			c-12.35-10.33-16.73-26.43-25.38-39.45c-15.37-24.02-34.51-45.26-52.38-67.36c-7.11-8.46-12.28-18.3-19.45-26.68
			c-4.29,13.59-7.62,27.48-9.86,41.56c-4.75,40.1-14.52,79.46-19.05,119.59c-4.75,31.18,0.87,98.42,31.76,104.38
			c8.28,2.03,17.17,4.32,25.56,1.5c7.47-3.55,14.54-10.79,13.4-19.71c0.46-8.33-7.28-13.28-9.6-20.61
			c0.99-9.12,27.46-3.3,35.86,0.33c24.44,12.93,37.72,42.61,29.47,58.91c5.39,0.71,12.11-0.03,15.86,4.71
			c4,4.68,6.32,10.44,7.23,16.47c0.79,5.22,0.52,10.64-0.64,15.73c-1.57,9.05-6.78,16.79-11.37,24.55
			c-17.68,23.04-40.98,27.57-51.64,31.43c39.16,11.33,100.67-0.35,145.51,18.19c10.25,2.79,18.12,10.24,27.14,15.44
			c7.84,4.56,13.13,12.11,19.52,18.34c36.74,35.91,20.26,114.41,3.67,119.68c-0.91-14.79,0.18-31.07-8.54-43.92
			c-7.18-11.55-21.63-42.23-58.74-42.27c0.66,8.36-1.83,17.01-8.02,22.89c-4.99,6.2-12.73,8.71-19.59,12.18
			c-8.66,4.54-18.65,4.73-28.16,5.74c-42.04,2.85-69.64-2.72-108.96-27.34c-7.35-5.78-15.28-10.81-22.1-17.21
			c-7.34-6.38-12.98-14.55-21.12-20.04c6.44,19.88,22.53,51.03,61.51,93.68c-6.87,9.62-19.79,11.02-30.65,12.17
			c-16.59,1.31-30.26-9.36-43.99-16.89c0.25,6.72,3.12,31.42-3.93,55.87c-4.8,20.64-23.96,62.32-39.04,76.96
			c-7.84-7.06-13.15-16.33-19.38-24.74c-36.97-62.61-29.02-84.79-27.94-103.67c-15,8.42-35.5,30.23-72.25,6.68
			c-4.11-2.3-4.95-7.26-6.91-11.13c12.75-8.59,25.17-18.71,32.69-32.38c10.35-14.17,30.41-43.69,34.66-60.62
			c-12.08,9.98-23.34,34.18-94.2,57.65c-44.89,16.67-72.12,11.05-78.02,10.41c-15.35,1.25-37.54-8.37-42.29-22.83
			c-2.08-5.63-0.25-11.66-0.77-17.44c-4.6,0.41-8.77,2.44-12.11,5.6c-6.73,5.94-15.12,10.02-20.88,16.99
			c-8.31,14.08-23.62,30.74-8.94,64.42c-4.44-2.4-9.11-4.4-13.38-7.07c-9.45-12.09-17.37-25.98-19.56-41.37
			c-1.51-11.23,2.63-41.18,13.03-57.62c16.09-28.8,47.24-47.4,80.41-56.51c25.48-6.99,52.15-8.39,74.11-4.5
			c15.3,3.71,51.38,1.1,57.84-2.71c-2.83-0.97-31.61-5.73-49.04-31.85c-8.65-13.23-23.15-27.78-13.54-51.12
			c3.91-3.97,9.33-5.8,14.11-8.47c-7.27-27.61,7.64-49.77,30.76-66.52c12.68-8.29,13.76-5.57,23.61-4.8
			c-2.97,8.28-6.48,16.54-7.3,25.41c-0.39,29.77,40.05,35.38,58.18,16.16c12.8-14.62,11.02-9.52,18.73-36.73
			c9.98-45.12-8.17-206.78-20.26-235.59c-38.46,60.23-79.41,94.97-90.57,150.57c-0.02,2.57-4.15,3.22-5.58,1.61
			c-8.79-7.99-12.59-19.57-17.05-30.21c-0.04,0.03-115.14,108.81-128.36,120.45c16.72,24.53,47.39,20.64,57.6,24
			c5.94,3.15,10.8,8.04,15.46,12.83c13.72,27.16,8.18,73.23-24.81,94.22c-0.12,0.01-0.24,0.02-0.35,0.02
			c-2.76,0-1.78-3.94-1.03-5.64c3.32-7.76,3.79-26.35-3.09-41.97c-15.08,6.36-30.82,0.11-37.35-19.95c-0.68-3.7-4.87-3.7-7.71-4.71
			c-14.82-4.46-27.09-14.52-38.16-24.96c-7.97,7.24-6.24,8.05-29.9,36.8c-3.97,4.92-9.35,8.47-13.31,13.42
			c-17.53,21.3-17.84,14.36-31.36,28.59c-3.94,8.05-3.37,19.22-11.78,24.53c-17.1,14.19-32.18,1.53-34.72,2.62
			c-11.81,20.83-8.63,22.12-10.69,35.35c-1.35,6.42,6.04,12.43,1.36,18.4c-21.3-17.41-19.91-20.52-25.39-39.64
			c-10.23-34.73,10.21-64.56,12.77-70.05c8.56-17.25,38.78-18.23,44.2-20.79c11.5-6.1,23.61-12.09,31.87-22.53
			c-17.58,2.96-34.94,8.47-52.95,7.82c-5.38,0.36-11.02-0.66-16.23,0.88c-5.53,11.69-17.67,20.8-30.87,20.53
			c-8.93,0.48-13.61-8.48-19.27-13.87c-5.42,2.76-10.89,5.83-14.82,10.61c-6.83,8.23-13.84,16.34-19.46,25.5
			c-10.07-16-8.75-54.93,18.37-77.75c0.98,0.96,1.96,1.98,2.9,3.01c1.12-0.7,2.21-1.42,3.28-2.16c-1.2-0.93-2.38-1.85-3.55-2.76
			c15.66-5.56,7.59-32.29,47.06-24.58c8.29,1.97,13.71,9.98,22.32,11.07c16.07,2.68,53.29-3.67,61.88-6.58
			c-12.32-5.27-22.3-14.38-31.87-23.48c-6.75-6.02-14.92,3.53-22.34,0.33c-7.78-2.99-17.57-4.98-21.54-13.18
			c-3.17-4.71-4.31-11.15-9.48-14.22c-7.49-1.74-15.25-0.93-22.8-0.05c-8.44,3.83-16.24,8.85-23.67,14.33
			c-1.2-13.75,6.04-26.22,13.8-36.92c9.7-10.1,22.72-16.18,35.67-20.98c4.9-2.11,10.31-1.3,15.45-2.09
			c17.54-15.13,41.53-5.72,51.54,7.36c6.88,9.18,8.31,41.7,66.15,60.38c10.36-2.42,112.68-93.49,133.53-128.39
			c-6.14-3.88-14.87-3.97-18.83-10.72c79-91.11,96.21-160.29,144.91-221.63c-0.01,0-34.73-151.18-34.73-151.19
			c-8.67,55.42,11.3,103.11-8.08,170.16c-11.78,34.6-51.1,65.64-90.48,59.27c-2.35-1.67-3.42-4.99-1.53-7.4
			c18.09-31.76,5.47-79.62,15.67-215.31c-3.78,2.22-8.42,3.45-11.46,6.65c-1.78,30.78-25.79,261.05-82.66,314.36
			c-6.32,7.77-11.49,16.68-19.6,22.84c-7.03,4.97-12.09,12.48-20.05,16.15c-34.61,17.14-43.88,19.61-76.76,8.34
			c-6.44-2.81-10.9-8.64-13.82-14.85c13.96-26.11,24.19-12.21,61.51-107.43c51.77-161.44,17.28-77.57,69.76-238.88
			c-1.84-0.18-3.69-0.33-5.52-0.44c-1.45,3.35-108.84,213.33-134.77,236.49c-5.38,4.68-46.87,55.99-81.59,64.77
			c-32.28,6.89-10.43,5.81-43.13,2.86c-20.44-3.6-47.42-7.44-58.64-45.87c-0.47-3.22-2.62-8.03,1.18-10
			c6.17-2.81,13.36-3.41,18.51-8.23c40.57-20.81,93.21-83.54,118.12-121.65c38.39-68.86,107.08-154.97,107.08-154.97
			c-6.59,0.29-10.48,6.47-15.31,10.17c-29.59,19.71-102.37,124.53-188.3,129.76c-11.95-1.07-38.57,0.27-58.17-27.93
			c-8.72-9.17-15.38-21.62-17.5-50.33c3.44,0.1,35.32,5.52,78.9-22.08c63.18-40.68,95.21-71.19,132.77-92.95
			c-3.2-2.11-5.83-5.71-9.7-6.4c-14.35,6.32-29.59,10.52-43.45,18.02c-22.03,8.97-44.12,19.03-68.01,21.67
			c-41.62,7.41-45.95,0.61-63.53-6.81c-15.9-6.92-28.44-30.61-31.96-39.22c-8.31-23.21-1.94-61.96,14.14-59.85
			c35.56,17.55,54,6.6,94.47-0.68c26.35-7.3,53.64-10.03,80.37-15.63c1.21-5.9,3.12-11.6,6.64-16.55
			C168.1,471.85,77,491.28,39,417.17c-14.66-30.47,0.15-76.45,13.61-85.25c3.21,0.01,7.39-0.78,9.66,2.11
			c6.03,7.11,15.97,22.87,46.23,32.61c26.37,8.7,112.4,25,129.65,27.7c-1.7-5.5-1.88-11.24-1.01-16.92
			c-40.06-22.53-99.28-42.88-129.16-76.47c-36.5-40.86-42.45-92.71-24.33-120.75c3.82-5.3,4.81-12.47,10.27-16.53
			c5.27-4.3,10.5-10.91,18.16-9.17c7.67-0.81,11.09,7.64,14.1,13.24c32.88,72.14,118.09,105.68,154.84,129.19
			c5.21-2.7,10.77-4.54,16.26-6.51c-0.49-2.15-0.03-4.89-2.1-6.31c-4.28-3.52-31-19.25-41.21-28.35
			c-10.71-8.06-19.4-18.45-30.14-26.46c-2.97-4.5-52.65-56.15-54.05-98.95c-0.38-10.61-4.51-21.14-2.1-31.77
			c1.74-8.78,2.7-17.97,7.15-25.92c16.19-28.79,52.03-47.22,75.48-24.41c3.72,4.65-0.55,10.23-0.65,15.36
			C244.79,134,341.13,189.1,350.77,198.57c18.02,13.63,84.46,42.07,90.38,104.6c4.54,53.56-28.27,72.53-63.23,86.18
			c14.48,19.22,30.55,39.34,24.38,89.04c4.94-2.4,39.11-26.48,80.22-19.29c37.49,4.32,62.98,29.71,99.45,34.05
			c5.52-5.79,10.05-12.46,15.8-18.04c23.61-23.84,39.58-22.41,47.23-24.87c-0.24,1.61-0.46,3.23-0.66,4.87
			c0.88-0.14,2.64-0.41,3.53-0.55c3.02-5.22,5.23-10.83,7.63-16.35c7.3-14.27,20.34-24.14,30.16-36.46c-3.15,0.7-6.16,1.8-9.3,2.48
			c-7.39-1.32-14.51-3.9-21.33-7c-0.1-0.96-0.32-2.87-0.43-3.83c16.82-10.14,47.89-28.12,43.61-47.62
			c-1.73-10.99-5.01-24.05-15.92-29.33c-6.02-2.46-11.99-5.41-18.43-6.43c-15-0.62-29.9-2.84-44.94-1.8
			c5.63-24.33,42.52-28.34,52.02-33.98c-52.95-9.4-116.48,45.79-168.6-4.94c-1.82-3.09-21.76-27.36-20.4-39.45
			c0.28-6.23-1.55-13.15,3.06-18.32c47.31,56.1,112.29,7.32,194.61,28.11c-2.35-5.94-5.14-11.88-9.92-16.27
			c-36.81-35.21-39.42-25.78-55.33-26.49c-10.5-7.28-22.2-14.8-35.56-13.94c-14.54,2.26-21.72,5.36-30.86,27.5
			c-5.89-11.3-9.13-23.85-11.27-36.33c4.69-32.95,4.46-36.57,28.05-55.4c5.49-4.59,13.25-3.99,19.18-7.62
			c3.5-2.18,3.8-6.69,5.94-9.84c6.32-5.87,14.37-11.12,23.43-9.11c3.34-6.42,7.46-12.79,13.74-16.7
			c103.11-64.56,203.16,50.4,232.6-10.14c11.46,13.56,3.05,41.75-42.02,54.67c36.66,39.92,51,100.81,79.93,123.81
			c-5.31,7.33-14.95,9.73-23.54,8.64c-7.4-2.48-14.02-6.72-21.21-9.65c0.08,8.34,3.3,16.13,5.11,24.17
			c2.77,10.28,9.76,65.91,9.54,91.53c-0.03,9.1,1.23,18.14,3.89,26.82c2.62,28.31,13.47,33.41,16.96,41.46
			c-4.64,0.88-9.47,2.06-14.1,0.53c-27.35-9.01-24.22-10.98-38.48-20.72c0.21,17.79-7.28,34.49-7.96,52.16
			c30.88,7.3,38.08,27.86,43.08,36.92c11.96-6.44,85.63-63.94,169.13-29.92c-1.86-10.95-10.69-37.1,17.74-71.27
			c-0.15-0.44-0.43-1.31-0.57-1.75c-56.62-31.31-67.62-77-36.27-129.88c31.82-55.99,195.08-127.45,176.41-216.02
			c48.15-34.85,125.77,38.88,52.18,135.48c-7.45,8.87-13.25,19.06-21.43,27.34c-78.8,79.24-44.24,43.04-83.64,76.08
			c18.92-2,13.29-2.97,28.64,1.97c6.61-5.73,49.36-32.78,54.11-36.3c74.93-48.34,72.18-60.64,99.78-97.55
			c17-4.74,26.16,12.75,36.3,25.51c5.79,7.3,5.74,16.76,7.62,25.45c13,54.35-28.96,93.79-69.24,124.22
			c-27.34,19.12-62.69,30.58-91.77,42.38c-3.23,6.42-7.4,12.3-12.24,17.63c4.59,1.17,8.98,3.25,13.67,3.96
			c19.92-1.58,60.24-9.54,116.17-30.29c34-12.95,49.17-32.75,53.67-36.22c16.52-7.67,17.75,8.09,27.82,20.15
			c22,27.54,10.05,102.21-62.73,120.17c-69.34,16.87-97.79,8.78-125.99,8.97c-0.8,5.08-2.16,10.05-4.03,14.82
			c9.47,2.4,19.39,2.54,28.81,5.33c21.71,2.87,105.22,33.84,155.42,9.94C1409.27,513.27,1417.2,523.1,1418.54,535.01z
			 M1308.12,594.21c48.63,14.86,115.72-23.04,86.99-66.99c-25.43,1.3-7.84,18.5-151.18-13.2c-15.99-2.97-32.41-8.55-48.74-4.81
			c5.7,5.72,14,9.77,16.49,17.99c2.24,9-4.12,16.68-6.37,24.93c1.65,4.45,6.68,6.76,10.78,8.7
			C1219.66,562.07,1283.06,590.49,1308.12,594.21z M1375.71,751.63c9.68-9.01,9.87-23.01,9.41-35.28
			c-19.69-2.9-23.32,6.04-73.27-25.13c-20.41-13.28-85.12-68.82-111.92-86.68c-6.65-4.37-13.13-9.68-21.13-11.26
			c-11.14,21.57-7.06,14.92-26.05,26.04c2.57,3.4,5.63,6.4,8.88,9.17C1197.28,661.27,1299.12,821.57,1375.71,751.63z
			 M1326.47,453.03c107.29-22.52,73.56-112.82,55.77-107.89c-5.34,4.07-8.96,10.13-14.87,13.5c-12.58,6.92-24.38,15.3-37.65,20.92
			c-26.34,14.29-107.28,29.4-108.28,29.71c-0.93,6.54-1.11,13.21-2.52,19.68c-3.41,8.34-10.81,14.03-15.65,21.44
			c6.22,3.82,12,9.98,19.86,9.62C1224.13,460.01,1295.58,462.43,1326.47,453.03z M1354.88,231.52c1.83-15.78,1.31-32.67-6.56-46.88
			c-3.04-5-8.97-8.96-14.96-8.24c-6.51,6.22-10.97,14.19-16.35,21.33c-17.51,23.87-67,58.95-73.07,64.17
			c-18.72,15.11-40.84,25.01-60.47,38.75c-0.47,25.85,1.92,12.22-5.46,31.39c22.52,0.97,22.23,3.49,32.42,21.13
			c10.61-1.45,18.8-9.13,28.65-12.73c21.57-8.57,41.66-20.43,60.3-34.2C1328.78,284.35,1345.81,273.35,1354.88,231.52z M1332.29,936
			c-8.53-6.95-18.63-11.81-26.53-19.55c-93.03-91.56-149.96-234.2-182.78-266.1c-12.96,7.57-15.82,10.57-31.75,6.48
			c-8.61-2.18-15.6-8.04-23.84-11.13c-0.08,2.93-0.97,6.15,0.53,8.89c9.54,18.78,20.8,36.63,29.61,55.79
			c15.82,36.74,75.11,172.94,108.38,198.67c8.04,6.15,13.35,15.03,21.22,21.38c11.83,9.64,39.11,31.78,56.39,31.29
			C1305.59,963.14,1323.1,956.02,1332.29,936z M1291.36,1252.17c-5.43-13.56-17.62-24.36-31.59-28.54
			c-0.61-3.96-0.12-8.25-1.92-11.89c-2.93-3.99-8.15-7-13.2-5.85c-6.16,2.77-10.44,9.65-17.75,9.57
			c-25.97,1.99-30.6,12.15-93.78-4.83c-34.87-12.67-69.86-31.89-95.47-59.19c-2.6-2.76-21.95-19.48-37.88-37.8
			c-35.32-35.62-52.95-64.02-60.02-63.73c-9.4-0.65-18.83-0.27-28.23-0.21c2.77,6.04,6.49,11.67,11.46,16.17
			c10.38,9.08,18.37,20.45,27.97,30.3c10.63,10.69,7.96,11.41,53.65,55.24c9.08,8.83,15.73,19.9,25.49,28.05
			c6.88,6.83,16.92,11.48,20.57,20.89c-1.55,6.32-3.66,12.74-7.48,18.1c-26.13,30.09-35.09,25.9-54.22,27.36
			c-21.81,1.81-27.52,31.59-20.79,48.87c3.71-6.09,6.7-12.57,9.18-19.24c2.19-4.29-3.47-9.1,0.14-12.93
			c2.93-0.11,6.73-1.26,8.86,1.53c5.05,5.34,8.77,12.41,15.68,15.7c9.5,2.13,19.83-6.51,19.25-16.32
			c-0.54-8.24,7.93-11.89,13.95-15.21c8.42-3.63,15.22-9.84,22.44-15.31c4.97-3.9,7.62-9.8,11.64-14.51
			c0.72,0.03,2.19,0.09,2.93,0.13c22.38,24,36.82,58.59,70.8,87.67c3.74,4.08,9.15,0.25,13.74,0.42
			c0.82,20.55-3.81,20.39,6.08,35.01c11.67-0.87,10.85,1.39,18.51-12.81c2.26,0.14,5.13-0.71,6.77,1.45
			c9.36,10.84,15.39,24.38,17.48,38.54c11.77-36.19-3.55-39.81-3.4-62.64c0.61-5.81-5.76-7.57-9.97-9.31
			c-19.84-8.4-19.92,12.02-66.76-39.28c-11.4-13.48-23.18-26.8-31.69-42.4c11.05-0.77,44.05,14.58,75.51,20.66
			c8.8,1.29,17.74,1.28,26.52,2.71c9.13,1.28,18.5-0.57,27.55,1.07c8.51,7.43,0.56,26.44,24.83,16.48c5.87-2.33,7.12-9.25,9.88-14.2
			C1270.4,1240.61,1279.89,1249.64,1291.36,1252.17z M1257.23,135.16c14.84-22.72,5.61-69.24-24.85-76.71
			c-5.08-1.06-10.45-1.12-15.5,0.05c-4.89,2.25-2.93,8.61-3.41,12.85c0.75,14.9-6.59,28.35-12.58,41.48
			c-26,58.48-100.18,89.84-144.32,135.48c-10.18,10.53-18.77,21.82-24.79,34.38c-17.9,40.59-5.15,77.94,34.37,95.82
			c6.63,3.1,15.27,1.84,20.27,7.98c-16.28,18.81-39.6,32.33-29.66,85.63c1.78,10.49,7.39,19.74,10.14,29.95
			c-2.29-1.16-34.34-24.72-57.59-26.86c-16.29-1.84-32.92-3.58-49.15-0.27c-11.18,2.34-22.94,2.89-33.44,7.75
			c-27.69,12.53-43.72,34.37-75.23,35.71c-3.19,0-6.7,0.87-9.65-0.58c-2.26-3.42-1.69-7.63-1.7-11.48
			c5.34-0.24,10.75-0.46,15.98-1.77c-3.54-14.93-17.58-24.5-31.25-29.44c-8.74-4.18-33.74-1.48-39.12,0.7
			c-12.6,4.94-27.55,8.92-46.66,42.46c-2.83,5.3-3.56,12.03-8.83,15.72c-1.43-3.64-3.32-7.55-1.75-11.48
			c7.95-27.46,25.69-50.53,55.08-62.09c8.67-3.83,19.06-0.43,27.23-5.93c-2.33-8.53,0.82-17.06,2.48-25.38
			c2.3-10.1,2.25-20.52,3.88-30.72c3.93-28.1-5.25-36.15,0.91-44.96c0.66,1,17.57,31.2,40.57,45.56c-2-10.58-5.75-20.74-7.5-31.36
			c-3.34-31.81,0.74-59.22-7.49-88.56c-0.43-1.58-0.82-3.16-1.18-4.75c-2.54-11.13-3.63-22.54-6.39-33.63
			c-3.05-10.8-9.4-20.27-12.9-30.9c-4.68-14.14-11.75-19.21-10.25-26.02c24,18.48,29.43,34.57,46.36,38.7
			c-1.81-4.57-29.31-60.85-50.99-82.63c-7.49-8.24-13.8-17.59-22.28-24.9c-6.33-5.89-14.05-9.98-20.31-15.91
			c8.94,0.58,37.48,11.29,53.37,0.7c-5.63-4.79-40.81-8.53-64.16-16.57c-9.24-3.31-19.17-3.57-28.59-6.14
			c-5.42-1.43-10.92-2.79-16.51-3.25c-1.61-0.13-3.22-0.19-4.84-0.15c-27,0-55.79-3.56-73.54,20.34
			c-8.69,10.65,17.67,16.28,39.77,6.53c11.15-4.69,23.12-7.45,35.27-6.55c0.99-0.09,1.97-0.12,2.94-0.09
			c10.48,0.2,19.88,6.27,27.48,13.13c3.28,2.52,3.33,6.92,4,10.64c-1.95,0.65-3.92,1.17-5.93,1.6c-3.43-1.71-6.68-3.76-10.21-5.24
			c-4.61,18.19-6.47,33.75-26.73,37.31c-9.08,1.4-16.68-5.01-23.31-10.26c-6.32-4.86-8.13-12.93-10.84-19.98
			c-3.77-0.3-7.51,0.08-10.79,2.05c2.4,10.47,10.8,17.64,16.26,26.46c22.69,36.1,23.08,48.73,45.57,67.91
			c19.52,23.89,25.28,20.27,23.95,63.45c-4.97,17.6-20.71,6.74-46.2,7.65c-8.72,1.46-18.53,0.28-25.75,6.4
			c10.91,3.32,22.33,5.17,32.67,10.15c25.06,12.23,38.76,11.65,62.3,7.48c10.96-1.36,20.25-7.76,29.87-12.68
			c7.8-3.9,12.41-11.56,18.38-17.57c1.49,20.06-24.38,40.85-38.77,45.02c-9.75,3.22-20.04,3.5-30.17,4.46
			c-8.84,0.67-17.4-2.31-26.17-2.99c1.04,26.78,0.54,24.37-14.74,51.2c10.07,0.61,17.66-6.45,25.84-11.07
			c0.91,3.89-0.47,7.6-3.09,10.51c-10,12.19-18.58,25.5-29.2,37.17c-13.97,15.92-27.56,32.67-36.14,52.22
			c-7.83,21.06-10.28,71.79-7.71,90.1c-14.13-19.79-11.8-68.99-11.59-79.17c0.52-3.44-2.13-5.77-4.24-8.01
			c-15.03,5.24-42.42,32.73-45.42,55.49c-2.81,20.2-9.18,41.6,2.23,94.64c1.59,7.96,0.63,16.25,2.96,24.1
			c0.21,1.05,18.58,103.12,32.8,145.04c9.63,37.17-0.1,3.29-61.02,124.87c-17.85,27.16-13.42,27.43-49.64,81.37
			c-6.23,9.73-14.96,17.58-20.69,27.66c19.49,10.27,19.62,4.79,44,6.21c11.12,0.56,6.81,24.09,12.89,41.82
			c5.87-6.48,9.29-14.68,14.11-21.9c10.59-20.62,43.55-58.2,61.77-89.97c11.79-17.16,17.78-36.06,27.86-41.85
			c12.14,21.36,39.17,190.24,35.19,222.78c-4.87,31.59,5.41,25.15-10.4,78.2c-16.45,47.89-91.05,73.04-103.99-0.9
			c-7.43,4.08-16.52,18.17-14.16,41.58c0.97,8.13,7.11,14.19,9.65,21.79c-15.07,3.5-25.29-5.68-24.43,8.81
			c1.58,13.71,10.3,25.58,21.46,33.27c12.61,10.65,29.85,11.44,45.57,11.89c18.4-1.42,36.02-2.6,70.15-33.55
			c2.92,3.09-0.11,6.61-1.73,9.48c-13.75,20.91-22.65,29.57-30.81,35.22c-5.59,3.87-10.82,6.32-17.02,10.33
			c-9.74,6.54-21.36,9.21-31.94,14.03c-24.96,11.92-72.25,2.61-97.32,2.76c-16.81,0.3-33.16,4.62-49.47,8.25
			c-35.4,12.99-49.58,23.51-62.47,48.56c-5.23,10.43-5.71,22.3-7.06,33.67c7.39-2.46,7.82-11.54,13.16-16.23
			c6.88-6.26,13.47-12.96,21.26-18.11c29.24-20.39,76.46-13.73,83.73-8.53c-6.42,3.26-13.75,3.43-20.52,5.61
			c-26.89,7.28-23.45,18.75-23.74,22.11c6.07,4.57,12.23,10.23,20.21,10.8c21.1,1,26.44,5.51,59.78-2.18
			c18.37-3.27,58.5-22.24,67.48-28.54c36.58-25.76,31.45-24.98,46.22-38.85c16.34-15.58,22.58-31.21,32.57-38.92
			c1.43-1.1,2.93-2.04,4.55-2.8c1.39,56.54-48.17,124.82-53.02,132.94c-5.33,7.66-14.6,11.62-19.31,19.83
			c15.21,5.84,32.67,1.85,45.14-8.2c11.26-8.56,15.96-22.45,23.4-33.96c5.68,16.18-4.15,51.59,2.21,80.42
			c2.19,9,2.22,18.68,6.76,26.99c8.24,16.39,19.8,47.97,26.72,30.12c18.04-38.25,26.81-64.99,20.79-106.34
			c-1.78-11.64-9.47-23.62-3.97-35.35c17.74,21.32,38.65,48.83,65.33,44.73c-3.3-5.98-32.18-36.55-47.29-85.3
			c-2.46-6.03-5.63-11.86-6.51-18.4c-1.96-15.21-14.3-36.54-11.53-48.59c3.08,2.98,39.23,49.84,41.8,53.63
			c2.18,2.93,5.36,4.84,8.23,7.03c8.12,5.81,14.07,14.24,22.83,19.19c49.13,27.78,100.54,53.06,151.14,16.98
			c-2.53-19.17-7.8-14.24-24.76-21.16c26.94-11.88,54.49-7.41,73.44,5.03c7.34,4.7,15.67,8.31,21.53,15.01
			c4.31,4.91,8.17,10.22,12.9,14.78c0.3-11.65,1.96-11.19-10.56-34.66c-36.71-58.67-128.33-41.88-186.17-52.43
			c-29.62-2.75-46.53-17.26-55.1-23.05c-23.45-15.9-36.75-45.95-37.81-47.71c-2.76-4.17-1.97-9.27-1.64-13.93
			c6.15,4.44,7.11,12.65,12.16,18c32.78,34.97,72,43.63,115.22,16.9c14.69-8.75,17.53-34.21,13.93-43.57
			c-19.93-1.59-14.04,1.08-25.7,3.08c-2.95-2.21-0.03-5.25,0.76-7.79c7.36-15.3,11.72-48.22-18.29-55.82
			c-2.61,42.91-48.5,60.16-79.17,25.07c-6.09-7.11-13.59-13.5-17.25-22.31c-17.9-58.32-3.11-145.4,10.2-204.51
			c4.35-19.79,5.28-40.48,13.02-59.4c5.69-14.31-10.09-18.6-13.93-48.41c-0.71-2.92,0.77-5.58,1.81-8.18
			c5,3.59,5.6,10.23,9.66,14.57c16.52,17.81,17.77,31.9,58.82,86.36c10.53,14.55,23.43,27.15,34.09,41.61
			c6.43,6.88,10.3,15.78,17.41,22.03c8.73-32.98,5.06-38.82,11.07-40.34c7.23,0.79,13.65,4.73,20.78,5.96
			c12.69,0.84,25.87,0.59,37.71-4.6c-1.87-3.03-4.19-5.77-6.87-8.09c-36.92-32.38-88.81-150.05-110.25-187.76
			c-25.32-45.8-17.61,6.01,24.08-208.38c1.8-7.38-1.77-15.59,2.93-22.23c7.79,6.89,11.91,31.19,29.55,39.8
			c22.46,7.03,22.18-21.08,27.06-28.31c10.88,13.12,17.56,30.55,33.03,39.26c32.86,4.2,21.8-25.85,26.75-38.2
			c12.42,14.39,17.03,30.19,42.54,41.48c7.12,3.2,17.26,2.83,22.25-3.84c6.79-12.1-1.14-25.69,1.32-38.48
			c3.45,3.46,6.51,7.26,9.52,11.1c10.8,14.3,75.27,36.5,44.75-26.52c4.66-1.56,8.69,1.74,12.73,3.52
			c14.03,7.31,34.34,6.64,44.26-7.11c3.24-19.64-10.58-20.76-19.52-37.01c2.35-3.93,7.4-1.45,11.04-1.37
			c11.97,2.46,24.93-0.81,34.18-8.82c13.03-11.54,0.79-26.61-10.83-31.34c-6.2-3.17-14.05-3.31-18.76-8.96
			c10.24-5.42,16.86,2.48,34.8-11.31c15.18-14.27,1.78-30.38-5.57-32.65c-7.05-2.27-14.52-3.09-21.34-6.1
			c1.09-2.27,2.09-5.08,4.97-5.49c8.49-2.7,18.01-4.82,23.89-12.14c6.23-6.43,7.27-16.56,4.01-24.63
			c-4.88-11.97-29.47-6.72-37.55-11.29c4.88-6.75,13.72-8.42,19.11-14.57c4.97-5.69,10.1-11.78,12.13-19.19
			c0.43-4.89,1.31-11.21-3.2-14.55c-5.88-5.67-14.71-5.48-22.23-4.37c-6.47,1.48-12.79,8.29-19.45,3.88
			c2.72-11.53,14.53-17.93,17.77-29.24c1.6-8.61-0.67-19.5-9.27-23.54c-24.39-3.85-26.85,9.83-39.06,7.3
			c2.07-6.08,8.11-9.6,10.29-15.61c8.48-23.07-5.72-39.08-39.66-25.18c-1.2-0.58-3.6-1.78-4.79-2.36c2.17-3.33,4.87-6.24,7.92-8.69
			c8.32-6.69,19.35-10.03,29.97-9.56c7.16,0.29,12.93,5.08,17.99,9.65c1.59,1.17,3.06,3.11,5.22,3.08
			c15.16-8.92,52.73-43.83,78-72.9C1230.58,176.24,1246.96,151.37,1257.23,135.16z M1241.16,1121.92
			c-15.28-11.88-21.06-6.46-38.08-7.33c-7.3,1.07-13.15-8.23-20.37-3.83c-30.66,17.96-5.42,38.78-71.79,69.77
			c-0.05,0.77-0.11,2.35-0.16,3.12c7.08,2.77,15.74,9.3,42.35-7.63c13.61-6.51,21.58-20.31,34.44-27.86
			c4.65,1.53,7.73,5.89,12.13,8.04c5.37,3.04,13.38,3.67,17.67-1.51C1225.57,1136.84,1187.51,1131.04,1241.16,1121.92z
			 M1142.12,1027.33c3.55-14.83,3.67,1.58-17.48-41.82c-23.11-48.07-17.63-50.57-26.54-79.11c-5.71-19.3-27.47-114.33-30.89-133.17
			c-30.36-108.17-31.04-98.4-43.03-103.46c-11.77-4.1-21.19-12.52-30.99-19.88c-4.04,6.84-6.91,15.06-4.69,23.01
			c14.74,46.22,6.13,139.61,32.64,230.52C1035.57,943.09,1059.1,1034.13,1142.12,1027.33z M956.68,887.85
			c1.78-7.97-2.78-15.38-3.36-23.21c-1.27-7.41-6.78-98.36-3.91-119.63c1.62-12.09-2.14-75.07-3.14-81.21
			c-4.9-7.77-11.59-14.32-17.39-21.43c-3.99,4.32-7.03,9.65-11.84,13.15c-9.97,4.16-21.1,0.66-29.79-4.87
			c-1.04,13.02,2.62,25.79,2.86,38.79c0.29,62.3-2.05,87.18,7.66,121.33c1.78,6.69,1.91,13.83,4.82,20.22
			c2.54,5.46,20.53,39.31,33.09,46.99C942.3,881.95,948.72,887.07,956.68,887.85z M722.1,274.38c12.21-12.14-5.51-35.14-11.21-40.07
			c-26.87-23.87-47.49-76.55-74.55-102.22c-7.4-7.32-13.88-19.08-25.97-17.8c-6.66-0.76-10.8,5.31-13.01,10.68
			c9.2,9.68,24.11-4.86,37.15,12.07c1.51,5.66-0.97,11.19-4.1,15.78c-14.93-0.17-17.22,0.49-35.94-16.67
			c-14.72-15.08-55.33,26.47-38.19,40.75c25.49-19.9,25.35-20.09,57.07-2.97c5.78,3.81,12.75,4.5,19.33,6.01
			c12.15,3.17,22.45,10.66,32.89,17.32c11.07,6.93,16.29,19.5,25.31,28.52c8.23,9.68,19.41,17.27,24.53,29.28
			C718.31,261.26,719.29,268.13,722.1,274.38z M705.27,131.74c3.79-5.14,3.13-12.02,3.31-18.05c-1.4-0.26-4.22-0.78-5.64-1.05
			c-1.58,5.73-0.13,17.71-9.05,16.34c-7.89,0.6-7.93-8.48-9.4-13.95c-1.97-0.24-3.96-0.48-5.93-0.68
			C680.09,135.47,698.48,140.51,705.27,131.74z M691.24,263.7c4.38,2.1,9.12,4.54,13.88,1.89c-13.24-13.71-15.56-10.49-52.23-14.95
			c-45.24-3.1-81.23,13.13-115.94,7.94c-10.25-1.04-19.38-6.18-29.19-8.85c2.5,12.62,16.07,15.94,25.91,21.08
			c8.53,4.67,18.53,2.54,27.8,3.17c8.61,0.76,16.71-2.85,25.23-3.31c3.42-0.24,6.83-0.84,10.04-2.07
			C614.66,261.11,665.9,254.94,691.24,263.7z M559.06,617.89c7.69-14.02,13.25-20.67,8.42-60.77c-1.25-15.79,5.06-30.83,5.93-46.39
			c-5.58-2.89-11.53-4.94-17.6-6.5c-19.3-5.33-53.9-28.25-81.06-27.18c-41.13-1.91-67.31,17.58-99.99,42.02
			c-1.65-7.33,4.29-13.29,5.24-20.29c4.96-17.4,4.49-35.59,4.05-53.49c-2.13-19.49-11.43-37.75-24.69-52.02
			c-5.92-5.28-15-7.61-16.94-16.35c12.4-7.99,48,1.42,71.04-30.64c13.64-28.34,10.93-55.08-5.7-80.41
			c-10.47-16.17-35.07-30.49-65.01-50.95c-17.97-12.28-37.85-26.77-57.76-45.21c-10.25-9.28-18.23-20.7-27.56-30.86
			c-11.78-13.1-19.06-29.61-23.51-46.51c-2.9-9.84-0.88-20.18-1.91-30.23c-3.88-5.21-11.79-4.57-17.44-3.12
			c-24.88,5.75-31.6,35.69-28.63,61c13.19,66.42,31.37,70.24,49.68,94.42c7.35,9.92,17.58,17.02,26.51,25.39
			c33.53,27.13,29.2,23.91,36.36,16.54c8.01-11.09,17.92-14.92,27.44-14.92c13.52,0,26.29,7.73,31.8,13.44
			c-7.94,2.08-15.39-3.43-23.35-2.1c-5.57,0.8-11.4,1.42-16.46,4.04c-16.34,19.59,0.3,34.01,11.49,50.39
			c-20.07-0.66-44.97-10.13-47.46,21.15c-0.41,12.17,6.42,22.99,15.38,30.68c-9.42,3.83-21.31-2.22-29.33,5.49
			c-9.01,7.87-15.83,21.85-9.53,33.32c2.64,5.89,9.15,8.9,11.37,15.04c-10.28,4.92-23.19,5.97-25.9,27.77
			c2.06,12.12,12.34,20.08,22.04,26.39c-6.29,4.5-13.01,8.63-18.2,14.48c-6.34,6.89-5.67,18.97,1.38,25.13
			c22.39,21.34,27.98,4,37.54,13.74c-10.35,6.68-21.23,14.03-26.33,25.74c-2.12,6.42-0.22,13.97,5.09,18.31
			c9.26,10.07,30.1-0.22,38.41,4.56c-3.82,6.53-8.83,12.28-12.61,18.83c-4.44,7.6-1.28,19.04,7.61,21.63
			c22.13,3.59,29.87-5.34,40.24-8.07c0.49,0.31,1.48,0.93,1.99,1.24c-18.85,37.69,13.74,53.17,49.52,18.47
			c2.18-2.43,5.35-3.31,8.39-4.13c-0.94,8.58-15.56,42.68,17.74,36.39c21.51-8.99,28.01-35.11,37.23-35.31
			c-0.22,5.24-1.09,10.41-1.72,15.61c-1.39,10.43,9.48,25.93,25.4,19.07c22.58-14.99,27.16-41.74,41.87-49.14
			c-0.3,11.31-3.49,23.12,1.01,34.03C524.3,643.08,540.12,647.79,559.06,617.89z M559.21,673.67c0.98-9.4,2.13-18.8,1.55-28.26
			c-8.64,6.41-17.9,14.13-29.3,13.72c-6.92,0.21-13.42-2.48-20.02-4.1c-8.11,19.67-5.2,86.74-5.66,151.14
			c0.25,14.07-5.37,58.11-4.83,64.63C575.92,847.18,557.6,744.4,559.21,673.67z M529.05,1060.87c3.28-3.64,1.54-8.63,0.13-12.63
			c-8.47-1.42-18.83-3.94-25.91,2.46c-8.42,7.18-46.17,57.58-80.84,84.83c-11.7,9.87-22.47,20.94-35.13,29.67
			c-4.92,3.36-8.9,7.83-13.01,12.08c-8.61,8.85-20.45,13.18-30.48,20.06c-14.15,10.6-31.85,14.88-49.01,17.63
			c-7.96,1.18-15.29,5.41-23.48,5.25c-12.71,0.02-25.35,1.42-37.97,2.82c-4.87,1.25-6.78-4-9.57-6.81
			c-5.47-6.72-15.34-9.43-23.38-6.2c-7.24,3.38-9.48,11.56-13.92,17.5c-5.42,4.53-23.72,9.44-27.06,29.1
			c9.65-5.54,18.38-13.49,29.94-14.62c2.43,3.55,3.9,8.01,7.35,10.72c21.49,4.82,19.29-11.45,27.47-14.79
			c24.59,3.35,73.66-0.56,110.72-18.34c2.63-1.23,5.61-2.65,8.4-0.98c-22.28,39.55-31.44,38.31-44.76,50.04
			c-27.48,23.61-47.77,14.55-63.42,31.08c-1.22,4.38,0.08,9.36-2.56,13.35c-2.96,5.09-6.54,10.3-6.32,16.48
			c0.1,7.36-1.32,15.12,1.42,22.19c5.46-12.18,9.02-27.22,21.26-34.44c3.73,4.49,6.89,10.07,12.45,12.55
			c19.71,6.15,19.5-23.13,22.14-32.58c4.32,0.52,9.43,2.76,13.23-0.55c18.77-13.93,52.38-58.53,65.8-76.85
			c4.41,0.28,9.79-1.5,13.4,1.86c33.06,29.45,30.83,24.02,53.14,33.43c1.96,4.55,1.28,9.88,3.38,14.39
			c3.12,4.84,9.61,5.47,14.72,3.94c4.46-2.6,8.15-7.16,13.83-6.68c3.69,8.7,6.24,17.8,9.32,26.73c2.94-10.33,4.73-40.26-11.73-50.02
			c-7.16-2.84-15.23-0.13-22.46-2.89c-12.75-4.62-26.14-9.54-35.65-19.67c-22.45-23.17-12.1-22.98,54.23-84.83
			C455.73,1135.32,508.74,1087.21,529.05,1060.87z M460.36,700.63c2.12-8.53,2.97-17.31,2.57-26.1
			c-6.43-2.66-13.29-5.03-18.37-10.02c-2.27-1.53-4.14-4.89-7.26-4.21c-4.84,2.69-8.66,6.9-13.5,9.65c-2.7,1.92-6.17,3.12-8.15,5.86
			c-1.72,4.53-2.16,9.43-3.38,14.1c-1.78,8.96-6.02,17.14-8.59,25.86c-10.73,31.38-40.81,145.29-40.81,145.29
			c-45.24,142.33-56.7,129.88-72.56,154.11c5.93,2.9,12.19,6.95,19.09,5.61c10.05-1.64,21.13-0.44,30.02-6.32
			C440.52,960.49,438.68,800.2,460.36,700.63z M379.54,667.11c2.71-4.87,1.58-10.74-1.35-15.22c-9.42,1.8-17.76,8.14-27.68,7.26
			c-6.81,0.28-12.68-3.69-19.13-5.07c-18.58,3.73-106.31,150.75-123.48,172.18c-47.54,68.99-98.69,90.59-110.5,103.91
			c-0.69,4.82,3.14,9.05,5.6,12.91c14.13,19.95,55.26,19.26,69.19,12.76c39.56-18.55,64.4-45.23,90.13-82.9
			C268.03,865.02,379.02,668.11,379.54,667.11z M307.29,1184.57c16.86,7.3,18.33,3.68,28.78-3.33
			c-11.58-6.56-23.99-11.94-33.75-21.27c-19.94-16.54-27.05-44.05-41.14-47.1c-5.94-0.8-11.74,1.32-17.64,1.5
			c-20.16,0.72-23.36,1.66-38.33,14.31c9.74-0.11,19.42,0.92,29.14,1.64c0.71,7.54-1.15,16.28,3.73,22.73
			c6.89,2.19,15.5,4.24,21.87-0.4c2.04-1.23,4.39-3.31,6.83-1.68C275.2,1155.9,286.5,1175.53,307.29,1184.57z M296.39,629.19
			c-4.74-4.1-10.5-6.83-15.1-11.09c-6.18-7.22-5.9-17.34-9.79-25.64c-16.42,5.65-29.21,17.9-43.81,26.79
			c-9.73,6.05-62.8,45.94-70.94,50.7c-78.65,50.55-64.21,32.46-96.06,43.01c1.81,20.59,28.07,47.3,54.56,45.01
			c40.25,0.18,118.46-62.69,138.21-87.88C266.06,654.73,282.03,642.75,296.39,629.19z M265.99,315.09
			c6.29-8.64-16.31-14.53-46.45-35.67c-1.49-1.05-42.21-24.24-66.35-45.79c-27.32-24.17-17.6-15.13-36.19-42.7
			c-4.13-6.19-7.16-13.02-9.59-20.04c-11.38,8.15-13.59,23.13-15.35,36.03c-3.64,20.28,4.63,39.82,10.61,58.75
			c3.36,9.31,11.48,15.55,17.63,22.93c24.35,29.63,58.89,43.13,79.26,51.47c25.74,10.46,42.28,22.86,47.62,21.87
			c9.52-5.14,4.72-8.56,23.7-15.64C266.25,336.79,260.05,325.47,265.99,315.09z M243.73,543.54c2.33-5.18,5.65-9.95,6.72-15.63
			c-18.26-12.23-20.42-18.23-26.3-20.25c-4.53-0.17-8.8,1.64-13.19,2.49c-43.97,8.85-61.74,18.27-124.07,25.45
			c-11.81,1.27-23.39-2-34.61-5.26c-2.05,6.57-1.2,13.56-1.2,20.34c0,8.04,4.33,15.11,7.27,22.34
			c5.11,12.92,28.15,24.97,39.92,25.64c9.82,0.43,19.85,1.75,29.5-0.88c44.92-8.84,103.34-36.77,107.15-39.37
			C239.85,554.94,241.26,548.69,243.73,543.54z M239.71,412.25c-9.04-3.04-18.59-3.92-27.91-5.69
			C91.25,381.48,94.38,384.07,69.13,368.21c-5-3.07-8.17-9.24-14.52-9.71c-6.15,20.42-10.4,38.82,3.2,57.28
			c22.28,29.93,28.45,27.78,50.27,34.98c21.98,7.65,55.76,7.48,125.37,6.16C227.32,439.79,218.45,439.79,239.71,412.25z"/>
		<g>
			<path fill="#FF1839" d="M705.27,131.74c3.79-5.14,3.13-12.02,3.31-18.05c-1.4-0.26-4.22-0.78-5.64-1.05
				c-1.58,5.73-0.13,17.71-9.05,16.34c-7.89,0.6-7.93-8.48-9.4-13.95c-1.97-0.24-3.96-0.48-5.93-0.68
				C680.09,135.47,698.48,140.51,705.27,131.74z"/>
			<path fill="#FF1839" d="M1241.16,1121.92c-15.28-11.88-21.06-6.46-38.08-7.33c-7.3,1.07-13.15-8.23-20.37-3.83
				c-30.66,17.96-5.42,38.78-71.79,69.77c-0.05,0.77-0.11,2.35-0.16,3.12c7.08,2.77,15.74,9.3,42.35-7.63
				c13.61-6.51,21.58-20.31,34.44-27.86c4.65,1.53,7.73,5.89,12.13,8.04c5.37,3.04,13.38,3.67,17.67-1.51
				C1225.57,1136.84,1187.51,1131.04,1241.16,1121.92z"/>
			<path fill="#FF1839" d="M1259.77,1223.63c-0.61-3.96-0.12-8.25-1.92-11.89c-2.93-3.99-8.15-7-13.2-5.85
				c-6.16,2.77-10.44,9.65-17.75,9.57c-25.97,1.99-30.6,12.15-93.78-4.83c-34.87-12.67-69.86-31.89-95.47-59.19
				c-2.6-2.76-21.95-19.48-37.88-37.8c-35.32-35.62-52.95-64.02-60.02-63.73c-9.4-0.65-18.83-0.27-28.23-0.21
				c2.77,6.04,6.49,11.67,11.46,16.17c10.38,9.08,18.37,20.45,27.97,30.3c10.63,10.69,7.96,11.41,53.65,55.24
				c9.08,8.83,15.73,19.9,25.49,28.05c6.88,6.83,16.92,11.48,20.57,20.89c-1.55,6.32-3.66,12.74-7.48,18.1
				c-26.13,30.09-35.09,25.9-54.22,27.36c-21.81,1.81-27.52,31.59-20.79,48.87c3.71-6.09,6.7-12.57,9.18-19.24
				c2.19-4.29-3.47-9.1,0.14-12.93c2.93-0.11,6.73-1.26,8.86,1.53c5.05,5.34,8.77,12.41,15.68,15.7c9.5,2.13,19.83-6.51,19.25-16.32
				c-0.54-8.24,7.93-11.89,13.95-15.21c8.42-3.63,15.22-9.84,22.44-15.31c4.97-3.9,7.62-9.8,11.64-14.51
				c0.72,0.03,2.19,0.09,2.93,0.13c22.38,24,36.82,58.59,70.8,87.67c3.74,4.08,9.15,0.25,13.74,0.42
				c0.82,20.55-3.81,20.39,6.08,35.01c11.67-0.87,10.85,1.39,18.51-12.81c2.26,0.14,5.13-0.71,6.77,1.45
				c9.36,10.84,15.39,24.38,17.48,38.54c11.77-36.19-3.55-39.81-3.4-62.64c0.61-5.81-5.76-7.57-9.97-9.31
				c-19.84-8.4-19.92,12.02-66.76-39.28c-11.4-13.48-23.18-26.8-31.69-42.4c11.05-0.77,44.05,14.58,75.51,20.66
				c8.8,1.29,17.74,1.28,26.52,2.71c9.13,1.28,18.5-0.57,27.55,1.07c8.51,7.43,0.56,26.44,24.83,16.48
				c5.87-2.33,7.12-9.25,9.88-14.2c12.31-1.28,21.8,7.75,33.27,10.28C1285.93,1238.61,1273.74,1227.81,1259.77,1223.63z"/>
			<path fill="#FF1839" d="M261.18,1112.87c-5.94-0.8-11.74,1.32-17.64,1.5c-20.16,0.72-23.36,1.66-38.33,14.31
				c9.74-0.11,19.42,0.92,29.14,1.64c0.71,7.54-1.15,16.28,3.73,22.73c6.89,2.19,15.5,4.24,21.87-0.4c2.04-1.23,4.39-3.31,6.83-1.68
				c8.42,4.93,19.72,24.56,40.51,33.6c16.86,7.3,18.33,3.68,28.78-3.33c-11.58-6.56-23.99-11.94-33.75-21.27
				C282.38,1143.43,275.27,1115.92,261.18,1112.87z"/>
			<path fill="#FF1839" d="M432.46,1269.57c3.12,4.84,9.61,5.47,14.72,3.94c4.46-2.6,8.15-7.16,13.83-6.68
				c3.69,8.7,6.24,17.8,9.32,26.73c2.94-10.33,4.73-40.26-11.73-50.02c-7.16-2.84-15.23-0.13-22.46-2.89
				c-12.75-4.62-26.14-9.54-35.65-19.67c-22.45-23.17-12.1-22.98,54.23-84.83c1.01-0.83,54.02-48.94,74.33-75.28
				c3.28-3.64,1.54-8.63,0.13-12.63c-8.47-1.42-18.83-3.94-25.91,2.46c-8.42,7.18-46.17,57.58-80.84,84.83
				c-11.7,9.87-22.47,20.94-35.13,29.67c-4.92,3.36-8.9,7.83-13.01,12.08c-8.61,8.85-20.45,13.18-30.48,20.06
				c-14.15,10.6-31.85,14.88-49.01,17.63c-7.96,1.18-15.29,5.41-23.48,5.25c-12.71,0.02-25.35,1.42-37.97,2.82
				c-4.87,1.25-6.78-4-9.57-6.81c-5.47-6.72-15.34-9.43-23.38-6.2c-7.24,3.38-9.48,11.56-13.92,17.5
				c-5.42,4.53-23.72,9.44-27.06,29.1c9.65-5.54,18.38-13.49,29.94-14.62c2.43,3.55,3.9,8.01,7.35,10.72
				c21.49,4.82,19.29-11.45,27.47-14.79c24.59,3.35,73.66-0.56,110.72-18.34c2.63-1.23,5.61-2.65,8.4-0.98
				c-22.28,39.55-31.44,38.31-44.76,50.04c-27.48,23.61-47.77,14.55-63.42,31.08c-1.22,4.38,0.08,9.36-2.56,13.35
				c-2.96,5.09-6.54,10.3-6.32,16.48c0.1,7.36-1.32,15.12,1.42,22.19c5.46-12.18,9.02-27.22,21.26-34.44
				c3.73,4.49,6.89,10.07,12.45,12.55c19.71,6.15,19.5-23.13,22.14-32.58c4.32,0.52,9.43,2.76,13.23-0.55
				c18.77-13.93,52.38-58.53,65.8-76.85c4.41,0.28,9.79-1.5,13.4,1.86c33.06,29.45,30.83,24.02,53.14,33.43
				C431.04,1259.73,430.36,1265.06,432.46,1269.57z"/>
			<path fill="#FF1839" d="M560.76,645.41c-8.64,6.41-17.9,14.13-29.3,13.72c-6.92,0.21-13.42-2.48-20.02-4.1
				c-8.11,19.67-5.2,86.74-5.66,151.14c0.25,14.07-5.37,58.11-4.83,64.63c74.97-23.62,56.65-126.4,58.26-197.13
				C560.19,664.27,561.34,654.87,560.76,645.41z"/>
			<path fill="#FF1839" d="M460.36,700.63c2.12-8.53,2.97-17.31,2.57-26.1c-6.43-2.66-13.29-5.03-18.37-10.02
				c-2.27-1.53-4.14-4.89-7.26-4.21c-4.84,2.69-8.66,6.9-13.5,9.65c-2.7,1.92-6.17,3.12-8.15,5.86c-1.72,4.53-2.16,9.43-3.38,14.1
				c-1.78,8.96-6.02,17.14-8.59,25.86c-10.73,31.38-40.81,145.29-40.81,145.29c-45.24,142.33-56.7,129.88-72.56,154.11
				c5.93,2.9,12.19,6.95,19.09,5.61c10.05-1.64,21.13-0.44,30.02-6.32C440.52,960.49,438.68,800.2,460.36,700.63z"/>
			<path fill="#FF1839" d="M262.32,872.94c5.71-7.92,116.7-204.83,117.22-205.83c2.71-4.87,1.58-10.74-1.35-15.22
				c-9.42,1.8-17.76,8.14-27.68,7.26c-6.81,0.28-12.68-3.69-19.13-5.07c-18.58,3.73-106.31,150.75-123.48,172.18
				c-47.54,68.99-98.69,90.59-110.5,103.91c-0.69,4.82,3.14,9.05,5.6,12.91c14.13,19.95,55.26,19.26,69.19,12.76
				C211.75,937.29,236.59,910.61,262.32,872.94z"/>
			<path fill="#FF1839" d="M115.25,757.97c40.25,0.18,118.46-62.69,138.21-87.88c12.6-15.36,28.57-27.34,42.93-40.9
				c-4.74-4.1-10.5-6.83-15.1-11.09c-6.18-7.22-5.9-17.34-9.79-25.64c-16.42,5.65-29.21,17.9-43.81,26.79
				c-9.73,6.05-62.8,45.94-70.94,50.7c-78.65,50.55-64.21,32.46-96.06,43.01C62.5,733.55,88.76,760.26,115.25,757.97z"/>
			<path fill="#FF1839" d="M98.27,598.66c9.82,0.43,19.85,1.75,29.5-0.88c44.92-8.84,103.34-36.77,107.15-39.37
				c4.93-3.47,6.34-9.72,8.81-14.87c2.33-5.18,5.65-9.95,6.72-15.63c-18.26-12.23-20.42-18.23-26.3-20.25
				c-4.53-0.17-8.8,1.64-13.19,2.49c-43.97,8.85-61.74,18.27-124.07,25.45c-11.81,1.27-23.39-2-34.61-5.26
				c-2.05,6.57-1.2,13.56-1.2,20.34c0,8.04,4.33,15.11,7.27,22.34C63.46,585.94,86.5,597.99,98.27,598.66z"/>
			<path fill="#FF1839" d="M108.08,450.76c21.98,7.65,55.76,7.48,125.37,6.16c-6.13-17.13-15-17.13,6.26-44.67
				c-9.04-3.04-18.59-3.92-27.91-5.69C91.25,381.48,94.38,384.07,69.13,368.21c-5-3.07-8.17-9.24-14.52-9.71
				c-6.15,20.42-10.4,38.82,3.2,57.28C80.09,445.71,86.26,443.56,108.08,450.76z"/>
			<path fill="#FF1839" d="M120.3,288.6c24.35,29.63,58.89,43.13,79.26,51.47c25.74,10.46,42.28,22.86,47.62,21.87
				c9.52-5.14,4.72-8.56,23.7-15.64c-4.63-9.51-10.83-20.83-4.89-31.21c6.29-8.64-16.31-14.53-46.45-35.67
				c-1.49-1.05-42.21-24.24-66.35-45.79c-27.32-24.17-17.6-15.13-36.19-42.7c-4.13-6.19-7.16-13.02-9.59-20.04
				c-11.38,8.15-13.59,23.13-15.35,36.03c-3.64,20.28,4.63,39.82,10.61,58.75C106.03,274.98,114.15,281.22,120.3,288.6z"/>
			<path fill="#FF1839" d="M235.62,214.41c7.35,9.92,17.58,17.02,26.51,25.39c33.53,27.13,29.2,23.91,36.36,16.54
				c8.01-11.09,17.92-14.92,27.44-14.92c13.52,0,26.29,7.73,31.8,13.44c-7.94,2.08-15.39-3.43-23.35-2.1
				c-5.57,0.8-11.4,1.42-16.46,4.04c-16.34,19.59,0.3,34.01,11.49,50.39c-20.07-0.66-44.97-10.13-47.46,21.15
				c-0.41,12.17,6.42,22.99,15.38,30.68c-9.42,3.83-21.31-2.22-29.33,5.49c-9.01,7.87-15.83,21.85-9.53,33.32
				c2.64,5.89,9.15,8.9,11.37,15.04c-10.28,4.92-23.19,5.97-25.9,27.77c2.06,12.12,12.34,20.08,22.04,26.39
				c-6.29,4.5-13.01,8.63-18.2,14.48c-6.34,6.89-5.67,18.97,1.38,25.13c22.39,21.34,27.98,4,37.54,13.74
				c-10.35,6.68-21.23,14.03-26.33,25.74c-2.12,6.42-0.22,13.97,5.09,18.31c9.26,10.07,30.1-0.22,38.41,4.56
				c-3.82,6.53-8.83,12.28-12.61,18.83c-4.44,7.6-1.28,19.04,7.61,21.63c22.13,3.59,29.87-5.34,40.24-8.07
				c0.49,0.31,1.48,0.93,1.99,1.24c-18.85,37.69,13.74,53.17,49.52,18.47c2.18-2.43,5.35-3.31,8.39-4.13
				c-0.94,8.58-15.56,42.68,17.74,36.39c21.51-8.99,28.01-35.11,37.23-35.31c-0.22,5.24-1.09,10.41-1.72,15.61
				c-1.39,10.43,9.48,25.93,25.4,19.07c22.58-14.99,27.16-41.74,41.87-49.14c-0.3,11.31-3.49,23.12,1.01,34.03
				c3.76,5.47,19.58,10.18,38.52-19.72c7.69-14.02,13.25-20.67,8.42-60.77c-1.25-15.79,5.06-30.83,5.93-46.39
				c-5.58-2.89-11.53-4.94-17.6-6.5c-19.3-5.33-53.9-28.25-81.06-27.18c-41.13-1.91-67.31,17.58-99.99,42.02
				c-1.65-7.33,4.29-13.29,5.24-20.29c4.96-17.4,4.49-35.59,4.05-53.49c-2.13-19.49-11.43-37.75-24.69-52.02
				c-5.92-5.28-15-7.61-16.94-16.35c12.4-7.99,48,1.42,71.04-30.64c13.64-28.34,10.93-55.08-5.7-80.41
				c-10.47-16.17-35.07-30.49-65.01-50.95c-17.97-12.28-37.85-26.77-57.76-45.21c-10.25-9.28-18.23-20.7-27.56-30.86
				c-11.78-13.1-19.06-29.61-23.51-46.51c-2.9-9.84-0.88-20.18-1.91-30.23c-3.88-5.21-11.79-4.57-17.44-3.12
				c-24.88,5.75-31.6,35.69-28.63,61C199.13,186.41,217.31,190.23,235.62,214.41z"/>
			<path fill="#FF1839" d="M897.77,810.77c1.78,6.69,1.91,13.83,4.82,20.22c2.54,5.46,20.53,39.31,33.09,46.99
				c6.62,3.97,13.04,9.09,21,9.87c1.78-7.97-2.78-15.38-3.36-23.21c-1.27-7.41-6.78-98.36-3.91-119.63
				c1.62-12.09-2.14-75.07-3.14-81.21c-4.9-7.77-11.59-14.32-17.39-21.43c-3.99,4.32-7.03,9.65-11.84,13.15
				c-9.97,4.16-21.1,0.66-29.79-4.87c-1.04,13.02,2.62,25.79,2.86,38.79C890.4,751.74,888.06,776.62,897.77,810.77z"/>
			<path fill="#FF1839" d="M1098.1,906.4c-5.71-19.3-27.47-114.33-30.89-133.17c-30.36-108.17-31.04-98.4-43.03-103.46
				c-11.77-4.1-21.19-12.52-30.99-19.88c-4.04,6.84-6.91,15.06-4.69,23.01c14.74,46.22,6.13,139.61,32.64,230.52
				c14.43,39.67,37.96,130.71,120.98,123.91c3.55-14.83,3.67,1.58-17.48-41.82C1101.53,937.44,1107.01,934.94,1098.1,906.4z"/>
			<path fill="#FF1839" d="M1122.98,650.35c-12.96,7.57-15.82,10.57-31.75,6.48c-8.61-2.18-15.6-8.04-23.84-11.13
				c-0.08,2.93-0.97,6.15,0.53,8.89c9.54,18.78,20.8,36.63,29.61,55.79c15.82,36.74,75.11,172.94,108.38,198.67
				c8.04,6.15,13.35,15.03,21.22,21.38c11.83,9.64,39.11,31.78,56.39,31.29c22.07,1.42,39.58-5.7,48.77-25.72
				c-8.53-6.95-18.63-11.81-26.53-19.55C1212.73,824.89,1155.8,682.25,1122.98,650.35z"/>
			<path fill="#FF1839" d="M1311.85,691.22c-20.41-13.28-85.12-68.82-111.92-86.68c-6.65-4.37-13.13-9.68-21.13-11.26
				c-11.14,21.57-7.06,14.92-26.05,26.04c2.57,3.4,5.63,6.4,8.88,9.17c35.65,32.78,137.49,193.08,214.08,123.14
				c9.68-9.01,9.87-23.01,9.41-35.28C1365.43,713.45,1361.8,722.39,1311.85,691.22z"/>
			<path fill="#FF1839" d="M1395.11,527.22c-25.43,1.3-7.84,18.5-151.18-13.2c-15.99-2.97-32.41-8.55-48.74-4.81
				c5.7,5.72,14,9.77,16.49,17.99c2.24,9-4.12,16.68-6.37,24.93c1.65,4.45,6.68,6.76,10.78,8.7c3.57,1.24,66.97,29.66,92.03,33.38
				C1356.75,609.07,1423.84,571.17,1395.11,527.22z"/>
			<path fill="#FF1839" d="M1221.44,409.27c-0.93,6.54-1.11,13.21-2.52,19.68c-3.41,8.34-10.81,14.03-15.65,21.44
				c6.22,3.82,12,9.98,19.86,9.62c1,0,72.45,2.42,103.34-6.98c107.29-22.52,73.56-112.82,55.77-107.89
				c-5.34,4.07-8.96,10.13-14.87,13.5c-12.58,6.92-24.38,15.3-37.65,20.92C1303.38,393.85,1222.44,408.96,1221.44,409.27z"/>
			<path fill="#FF1839" d="M1183.47,300.65c-0.47,25.85,1.92,12.22-5.46,31.39c22.52,0.97,22.23,3.49,32.42,21.13
				c10.61-1.45,18.8-9.13,28.65-12.73c21.57-8.57,41.66-20.43,60.3-34.2c29.4-21.89,46.43-32.89,55.5-74.72
				c1.83-15.78,1.31-32.67-6.56-46.88c-3.04-5-8.97-8.96-14.96-8.24c-6.51,6.22-10.97,14.19-16.35,21.33
				c-17.51,23.87-67,58.95-73.07,64.17C1225.22,277.01,1203.1,286.91,1183.47,300.65z"/>
			<path fill="#FF1839" d="M533.67,270.81c8.53,4.67,18.53,2.54,27.8,3.17c8.61,0.76,16.71-2.85,25.23-3.31
				c3.42-0.24,6.83-0.84,10.04-2.07c17.92-7.49,69.16-13.66,94.5-4.9c4.38,2.1,9.12,4.54,13.88,1.89
				c-13.24-13.71-15.56-10.49-52.23-14.95c-45.24-3.1-81.23,13.13-115.94,7.94c-10.25-1.04-19.38-6.18-29.19-8.85
				C510.26,262.35,523.83,265.67,533.67,270.81z"/>
			<path fill="#FF1839" d="M556.28,176.9c25.49-19.9,25.35-20.09,57.07-2.97c5.78,3.81,12.75,4.5,19.33,6.01
				c12.15,3.17,22.45,10.66,32.89,17.32c11.07,6.93,16.29,19.5,25.31,28.52c8.23,9.68,19.41,17.27,24.53,29.28
				c2.9,6.2,3.88,13.07,6.69,19.32c12.21-12.14-5.51-35.14-11.21-40.07c-26.87-23.87-47.49-76.55-74.55-102.22
				c-7.4-7.32-13.88-19.08-25.97-17.8c-6.66-0.76-10.8,5.31-13.01,10.68c9.2,9.68,24.11-4.86,37.15,12.07
				c1.51,5.66-0.97,11.19-4.1,15.78c-14.93-0.17-17.22,0.49-35.94-16.67C579.75,121.07,539.14,162.62,556.28,176.9z"/>
			<path fill="#FF1839" d="M851.05,1372.11c-29.62-2.75-46.53-17.26-55.1-23.05c-23.45-15.9-36.75-45.95-37.81-47.71
				c-2.76-4.17-1.97-9.27-1.64-13.93c6.15,4.44,7.11,12.65,12.16,18c32.78,34.97,72,43.63,115.22,16.9
				c14.69-8.75,17.53-34.21,13.93-43.57c-19.93-1.59-14.04,1.08-25.7,3.08c-2.95-2.21-0.03-5.25,0.76-7.79
				c7.36-15.3,11.72-48.22-18.29-55.82c-2.61,42.91-48.5,60.16-79.17,25.07c-6.09-7.11-13.59-13.5-17.25-22.31
				c-17.9-58.32-3.11-145.4,10.2-204.51c4.35-19.79,5.28-40.48,13.02-59.4c5.69-14.31-10.09-18.6-13.93-48.41
				c-0.71-2.92,0.77-5.58,1.81-8.18c5,3.59,5.6,10.23,9.66,14.57c16.52,17.81,17.77,31.9,58.82,86.36
				c10.53,14.55,23.43,27.15,34.09,41.61c6.43,6.88,10.3,15.78,17.41,22.03c8.73-32.98,5.06-38.82,11.07-40.34
				c7.23,0.79,13.65,4.73,20.78,5.96c12.69,0.84,25.87,0.59,37.71-4.6c-1.87-3.03-4.19-5.77-6.87-8.09
				c-36.92-32.38-88.81-150.05-110.25-187.76c-25.32-45.8-17.61,6.01,24.08-208.38c1.8-7.38-1.77-15.59,2.93-22.23
				c7.79,6.89,11.91,31.19,29.55,39.8c22.46,7.03,22.18-21.08,27.06-28.31c10.88,13.12,17.56,30.55,33.03,39.26
				c32.86,4.2,21.8-25.85,26.75-38.2c12.42,14.39,17.03,30.19,42.54,41.48c7.12,3.2,17.26,2.83,22.25-3.84
				c6.79-12.1-1.14-25.69,1.32-38.48c3.45,3.46,6.51,7.26,9.52,11.1c10.8,14.3,75.27,36.5,44.75-26.52
				c4.66-1.56,8.69,1.74,12.73,3.52c14.03,7.31,34.34,6.64,44.26-7.11c3.24-19.64-10.58-20.76-19.52-37.01
				c2.35-3.93,7.4-1.45,11.04-1.37c11.97,2.46,24.93-0.81,34.18-8.82c13.03-11.54,0.79-26.61-10.83-31.34
				c-6.2-3.17-14.05-3.31-18.76-8.96c10.24-5.42,16.86,2.48,34.8-11.31c15.18-14.27,1.78-30.38-5.57-32.65
				c-7.05-2.27-14.52-3.09-21.34-6.1c1.09-2.27,2.09-5.08,4.97-5.49c8.49-2.7,18.01-4.82,23.89-12.14
				c6.23-6.43,7.27-16.56,4.01-24.63c-4.88-11.97-29.47-6.72-37.55-11.29c4.88-6.75,13.72-8.42,19.11-14.57
				c4.97-5.69,10.1-11.78,12.13-19.19c0.43-4.89,1.31-11.21-3.2-14.55c-5.88-5.67-14.71-5.48-22.23-4.37
				c-6.47,1.48-12.79,8.29-19.45,3.88c2.72-11.53,14.53-17.93,17.77-29.24c1.6-8.61-0.67-19.5-9.27-23.54
				c-24.39-3.85-26.85,9.83-39.06,7.3c2.07-6.08,8.11-9.6,10.29-15.61c8.48-23.07-5.72-39.08-39.66-25.18
				c-1.2-0.58-3.6-1.78-4.79-2.36c2.17-3.33,4.87-6.24,7.92-8.69c8.32-6.69,19.35-10.03,29.97-9.56c7.16,0.29,12.93,5.08,17.99,9.65
				c1.59,1.17,3.06,3.11,5.22,3.08c15.16-8.92,52.73-43.83,78-72.9c8.07-9.11,24.45-33.98,34.72-50.19
				c14.84-22.72,5.61-69.24-24.85-76.71c-5.08-1.06-10.45-1.12-15.5,0.05c-4.89,2.25-2.93,8.61-3.41,12.85
				c0.75,14.9-6.59,28.35-12.58,41.48c-26,58.48-100.18,89.84-144.32,135.48c-10.18,10.53-18.77,21.82-24.79,34.38
				c-17.9,40.59-5.15,77.94,34.37,95.82c6.63,3.1,15.27,1.84,20.27,7.98c-16.28,18.81-39.6,32.33-29.66,85.63
				c1.78,10.49,7.39,19.74,10.14,29.95c-2.29-1.16-34.34-24.72-57.59-26.86c-16.29-1.84-32.92-3.58-49.15-0.27
				c-11.18,2.34-22.94,2.89-33.44,7.75c-27.69,12.53-43.72,34.37-75.23,35.71c-3.19,0-6.7,0.87-9.65-0.58
				c-2.26-3.42-1.69-7.63-1.7-11.48c5.34-0.24,10.75-0.46,15.98-1.77c-3.54-14.93-17.58-24.5-31.25-29.44
				c-8.74-4.18-33.74-1.48-39.12,0.7c-12.6,4.94-27.55,8.92-46.66,42.46c-2.83,5.3-3.56,12.03-8.83,15.72
				c-1.43-3.64-3.32-7.55-1.75-11.48c7.95-27.46,25.69-50.53,55.08-62.09c8.67-3.83,19.06-0.43,27.23-5.93
				c-2.33-8.53,0.82-17.06,2.48-25.38c2.3-10.1,2.25-20.52,3.88-30.72c3.93-28.1-5.25-36.15,0.91-44.96
				c0.66,1,17.57,31.2,40.57,45.56c-2-10.58-5.75-20.74-7.5-31.36c-3.34-31.81,0.74-59.22-7.49-88.56
				c-0.43-1.58-0.82-3.16-1.18-4.75c-2.54-11.13-3.63-22.54-6.39-33.63c-3.05-10.8-9.4-20.27-12.9-30.9
				c-4.68-14.14-11.75-19.21-10.25-26.02c24,18.48,29.43,34.57,46.36,38.7c-1.81-4.57-29.31-60.85-50.99-82.63
				c-7.49-8.24-13.8-17.59-22.28-24.9c-6.33-5.89-14.05-9.98-20.31-15.91c8.94,0.58,37.48,11.29,53.37,0.7
				c-5.63-4.79-40.81-8.53-64.16-16.57c-9.24-3.31-19.17-3.57-28.59-6.14c-5.42-1.43-10.92-2.79-16.51-3.25
				c-1.61-0.13-3.22-0.19-4.84-0.15c-27,0-55.79-3.56-73.54,20.34c-8.69,10.65,17.67,16.28,39.77,6.53
				c11.15-4.69,23.12-7.45,35.27-6.55c0.99-0.09,1.97-0.12,2.94-0.09c10.48,0.2,19.88,6.27,27.48,13.13c3.28,2.52,3.33,6.92,4,10.64
				c-1.95,0.65-3.92,1.17-5.93,1.6c-3.43-1.71-6.68-3.76-10.21-5.24c-4.61,18.19-6.47,33.75-26.73,37.31
				c-9.08,1.4-16.68-5.01-23.31-10.26c-6.32-4.86-8.13-12.93-10.84-19.98c-3.77-0.3-7.51,0.08-10.79,2.05
				c2.4,10.47,10.8,17.64,16.26,26.46c22.69,36.1,23.08,48.73,45.57,67.91c19.52,23.89,25.28,20.27,23.95,63.45
				c-4.97,17.6-20.71,6.74-46.2,7.65c-8.72,1.46-18.53,0.28-25.75,6.4c10.91,3.32,22.33,5.17,32.67,10.15
				c25.06,12.23,38.76,11.65,62.3,7.48c10.96-1.36,20.25-7.76,29.87-12.68c7.8-3.9,12.41-11.56,18.38-17.57
				c1.49,20.06-24.38,40.85-38.77,45.02c-9.75,3.22-20.04,3.5-30.17,4.46c-8.84,0.67-17.4-2.31-26.17-2.99
				c1.04,26.78,0.54,24.37-14.74,51.2c10.07,0.61,17.66-6.45,25.84-11.07c0.91,3.89-0.47,7.6-3.09,10.51
				c-10,12.19-18.58,25.5-29.2,37.17c-13.97,15.92-27.56,32.67-36.14,52.22c-7.83,21.06-10.28,71.79-7.71,90.1
				c-14.13-19.79-11.8-68.99-11.59-79.17c0.52-3.44-2.13-5.77-4.24-8.01c-15.03,5.24-42.42,32.73-45.42,55.49
				c-2.81,20.2-9.18,41.6,2.23,94.64c1.59,7.96,0.63,16.25,2.96,24.1c0.21,1.05,18.58,103.12,32.8,145.04
				c9.63,37.17-0.1,3.29-61.02,124.87c-17.85,27.16-13.42,27.43-49.64,81.37c-6.23,9.73-14.96,17.58-20.69,27.66
				c19.49,10.27,19.62,4.79,44,6.21c11.12,0.56,6.81,24.09,12.89,41.82c5.87-6.48,9.29-14.68,14.11-21.9
				c10.59-20.62,43.55-58.2,61.77-89.97c11.79-17.16,17.78-36.06,27.86-41.85c12.14,21.36,39.17,190.24,35.19,222.78
				c-4.87,31.59,5.41,25.15-10.4,78.2c-16.45,47.89-91.05,73.04-103.99-0.9c-7.43,4.08-16.52,18.17-14.16,41.58
				c0.97,8.13,7.11,14.19,9.65,21.79c-15.07,3.5-25.29-5.68-24.43,8.81c1.58,13.71,10.3,25.58,21.46,33.27
				c12.61,10.65,29.85,11.44,45.57,11.89c18.4-1.42,36.02-2.6,70.15-33.55c2.92,3.09-0.11,6.61-1.73,9.48
				c-13.75,20.91-22.65,29.57-30.81,35.22c-5.59,3.87-10.82,6.32-17.02,10.33c-9.74,6.54-21.36,9.21-31.94,14.03
				c-24.96,11.92-72.25,2.61-97.32,2.76c-16.81,0.3-33.16,4.62-49.47,8.25c-35.4,12.99-49.58,23.51-62.47,48.56
				c-5.23,10.43-5.71,22.3-7.06,33.67c7.39-2.46,7.82-11.54,13.16-16.23c6.88-6.26,13.47-12.96,21.26-18.11
				c29.24-20.39,76.46-13.73,83.73-8.53c-6.42,3.26-13.75,3.43-20.52,5.61c-26.89,7.28-23.45,18.75-23.74,22.11
				c6.07,4.57,12.23,10.23,20.21,10.8c21.1,1,26.44,5.51,59.78-2.18c18.37-3.27,58.5-22.24,67.48-28.54
				c36.58-25.76,31.45-24.98,46.22-38.85c16.34-15.58,22.58-31.21,32.57-38.92c1.43-1.1,2.93-2.04,4.55-2.8
				c1.39,56.54-48.17,124.82-53.02,132.94c-5.33,7.66-14.6,11.62-19.31,19.83c15.21,5.84,32.67,1.85,45.14-8.2
				c11.26-8.56,15.96-22.45,23.4-33.96c5.68,16.18-4.15,51.59,2.21,80.42c2.19,9,2.22,18.68,6.76,26.99
				c8.24,16.39,19.8,47.97,26.72,30.12c18.04-38.25,26.81-64.99,20.79-106.34c-1.78-11.64-9.47-23.62-3.97-35.35
				c17.74,21.32,38.65,48.83,65.33,44.73c-3.3-5.98-32.18-36.55-47.29-85.3c-2.46-6.03-5.63-11.86-6.51-18.4
				c-1.96-15.21-14.3-36.54-11.53-48.59c3.08,2.98,39.23,49.84,41.8,53.63c2.18,2.93,5.36,4.84,8.23,7.03
				c8.12,5.81,14.07,14.24,22.83,19.19c49.13,27.78,100.54,53.06,151.14,16.98c-2.53-19.17-7.8-14.24-24.76-21.16
				c26.94-11.88,54.49-7.41,73.44,5.03c7.34,4.7,15.67,8.31,21.53,15.01c4.31,4.91,8.17,10.22,12.9,14.78
				c0.3-11.65,1.96-11.19-10.56-34.66C1000.51,1365.87,908.89,1382.66,851.05,1372.11z"/>
		</g>
	</g>
</g>
</svg>
